<svg width="24" height="24" viewBox="0 0 24 24" fill="none" xmlns="http://www.w3.org/2000/svg">
<path fill-rule="evenodd" clip-rule="evenodd" d="M5.80334 17.4098C2.59816 14.2046 2.59816 9.00829 5.80334 5.8031C9.00853 2.59791 14.2048 2.59791 17.41 5.8031C20.6152 9.00829 20.6152 14.2046 17.41 17.4098C14.2048 20.615 9.00853 20.615 5.80334 17.4098ZM6.96401 6.96377C5.7327 8.19508 5.04095 9.8651 5.04095 11.6064C5.04095 13.3478 5.7327 15.0178 6.96401 16.2491C8.19533 17.4804 9.86535 18.1722 11.6067 18.1722C13.348 18.1722 15.0181 17.4804 16.2494 16.2491C17.4807 15.0178 18.1724 13.3478 18.1724 11.6064C18.1724 9.8651 17.4807 8.19508 16.2494 6.96377C15.0181 5.73246 13.348 5.04071 11.6067 5.04071C9.86535 5.04071 8.19533 5.73246 6.96401 6.96377Z" fill="black"/>
<path fill-rule="evenodd" clip-rule="evenodd" d="M9.28525 8.12444C9.13134 7.97052 8.92259 7.88406 8.70492 7.88406C8.48725 7.88406 8.2785 7.97052 8.12458 8.12444C7.97067 8.27835 7.8842 8.4871 7.8842 8.70477C7.8842 8.92244 7.97067 9.13119 8.12458 9.28511L10.4459 11.6064L8.12458 13.9278C7.97067 14.0817 7.8842 14.2904 7.8842 14.5081C7.8842 14.7258 7.97067 14.9345 8.12458 15.0885C8.2785 15.2424 8.48725 15.3288 8.70492 15.3288C8.92259 15.3288 9.13134 15.2424 9.28525 15.0885L11.6066 12.7671L13.9279 15.0885C14.0818 15.2424 14.2906 15.3288 14.5083 15.3288C14.7259 15.3288 14.9347 15.2424 15.0886 15.0885C15.2425 14.9345 15.329 14.7258 15.329 14.5081C15.329 14.2904 15.2425 14.0817 15.0886 13.9278L12.7673 11.6064L15.0886 9.28511C15.2425 9.13119 15.329 8.92244 15.329 8.70477C15.329 8.4871 15.2425 8.27835 15.0886 8.12444C14.9347 7.97052 14.7259 7.88406 14.5083 7.88406C14.2906 7.88406 14.0818 7.97052 13.9279 8.12444L11.6066 10.4458L9.28525 8.12444Z" fill="black"/>
</svg>
