<svg width="22" height="19" viewBox="0 0 22 19" fill="none" xmlns="http://www.w3.org/2000/svg">
<path d="M11 1C5.477 1 1 5.477 1 11C1 13.615 1.8565 16.218 3.5 18H18.5C20.143 16.218 21 13.615 21 11C21 5.477 16.523 1 11 1Z" stroke="#A4A44B" stroke-width="2" stroke-linecap="round" stroke-linejoin="round"/>
<path d="M11 14.5C12.1046 14.5 13 13.6046 13 12.5C13 11.3954 12.1046 10.5 11 10.5C9.89543 10.5 9 11.3954 9 12.5C9 13.6046 9.89543 14.5 11 14.5Z" stroke="#A4A44B" stroke-width="2" stroke-linecap="round" stroke-linejoin="round"/>
<path d="M11 7.5V10.5M11 3.5V4.5M3.5 11.5H4.5M5.5 6.5L6.207 7.207M17.5 11.5H18.5M16 7.207L16.707 6.5" stroke="#A4A44B" stroke-width="2" stroke-linecap="round" stroke-linejoin="round"/>
</svg>
