<svg width="14" height="14" viewBox="0 0 14 14" fill="none" xmlns="http://www.w3.org/2000/svg">
<path d="M6.36914 0.625281C6.39342 0.506067 6.45178 0.395237 6.53906 0.307899C6.65627 0.190688 6.81568 0.125281 6.98145 0.125281C7.14721 0.125281 7.30662 0.190688 7.42383 0.307899C7.51111 0.395237 7.56947 0.506067 7.59375 0.625281H6.36914ZM6.35645 0.875281H7.60645L7.60645 5.56376C7.60435 5.56162 7.6027 5.55904 7.60059 5.55692C7.43649 5.39283 7.21351 5.30106 6.98145 5.30106C6.74938 5.30106 6.5264 5.39283 6.3623 5.55692C6.36019 5.55904 6.35854 5.56162 6.35645 5.56376L6.35645 0.875281ZM6.37207 6.0413C6.39758 5.92592 6.4542 5.81855 6.53906 5.73368C6.65627 5.61647 6.81569 5.55106 6.98145 5.55106C7.14721 5.55106 7.30662 5.61647 7.42383 5.73368C7.50869 5.81855 7.56531 5.92592 7.59082 6.0413H6.37207ZM6.98145 6.7913C6.81569 6.7913 6.65627 6.72589 6.53906 6.60868C6.45422 6.52375 6.39752 6.41649 6.37207 6.30106H7.59082C7.56538 6.4165 7.50867 6.52375 7.42383 6.60868C7.30662 6.72589 7.14721 6.7913 6.98145 6.7913ZM6.35645 11.0696L6.35645 6.77958C6.35838 6.78155 6.36035 6.78348 6.3623 6.78544C6.5264 6.94953 6.74938 7.0413 6.98145 7.0413C7.21351 7.0413 7.43649 6.94953 7.60059 6.78544C7.60254 6.78348 7.60451 6.78155 7.60645 6.77958L7.60645 11.0696H6.35645ZM6.98047 12.9495C6.89841 12.9494 6.817 12.9331 6.74121 12.9016C6.6655 12.8702 6.597 12.8239 6.53906 12.7659C6.48116 12.7079 6.43468 12.6395 6.40332 12.5638C6.38811 12.527 6.37707 12.4883 6.36914 12.4495L7.59277 12.4505C7.58482 12.4891 7.57376 12.5271 7.55859 12.5638C7.52714 12.6395 7.4809 12.7089 7.42285 12.7669C7.36481 12.8248 7.29552 12.8703 7.21973 12.9016C7.14388 12.933 7.06254 12.9496 6.98047 12.9495Z" fill="#419F3A" stroke="#419F3A" stroke-width="0.25"/>
<path d="M13.1943 6.97245L7.90009 12.2664C7.77821 12.3883 7.63351 12.485 7.47426 12.551C7.31502 12.617 7.14433 12.6509 6.97196 12.6509C6.79959 12.6509 6.62891 12.617 6.46966 12.551C6.31041 12.485 6.16571 12.3883 6.04384 12.2664L0.749836 6.9722" stroke="#419F3A" stroke-width="1.5" stroke-linecap="round" stroke-linejoin="round"/>
</svg>
