<svg width="12" height="11" viewBox="0 0 12 11" fill="none" xmlns="http://www.w3.org/2000/svg">
<path d="M8.2497 6.41688C8.38862 6.41688 8.52185 6.36169 8.62009 6.26346C8.71832 6.16523 8.77351 6.032 8.77351 5.89307C8.77351 5.75415 8.71832 5.62092 8.62009 5.52268C8.52185 5.42445 8.38862 5.36926 8.2497 5.36926C8.11077 5.36926 7.97754 5.42445 7.87931 5.52268C7.78107 5.62092 7.72589 5.75415 7.72589 5.89307C7.72589 6.032 7.78107 6.16523 7.87931 6.26346C7.97754 6.36169 8.11077 6.41688 8.2497 6.41688ZM8.2497 8.51212C8.38862 8.51212 8.52185 8.45693 8.62009 8.3587C8.71832 8.26047 8.77351 8.12723 8.77351 7.98831C8.77351 7.84939 8.71832 7.71615 8.62009 7.61792C8.52185 7.51969 8.38862 7.4645 8.2497 7.4645C8.11077 7.4645 7.97754 7.51969 7.87931 7.61792C7.78107 7.71615 7.72589 7.84939 7.72589 7.98831C7.72589 8.12723 7.78107 8.26047 7.87931 8.3587C7.97754 8.45693 8.11077 8.51212 8.2497 8.51212ZM6.15446 5.89307C6.15446 6.032 6.09927 6.16523 6.00104 6.26346C5.90281 6.36169 5.76957 6.41688 5.63065 6.41688C5.49173 6.41688 5.35849 6.36169 5.26026 6.26346C5.16203 6.16523 5.10684 6.032 5.10684 5.89307C5.10684 5.75415 5.16203 5.62092 5.26026 5.52268C5.35849 5.42445 5.49173 5.36926 5.63065 5.36926C5.76957 5.36926 5.90281 5.42445 6.00104 5.52268C6.09927 5.62092 6.15446 5.75415 6.15446 5.89307ZM6.15446 7.98831C6.15446 8.12723 6.09927 8.26047 6.00104 8.3587C5.90281 8.45693 5.76957 8.51212 5.63065 8.51212C5.49173 8.51212 5.35849 8.45693 5.26026 8.3587C5.16203 8.26047 5.10684 8.12723 5.10684 7.98831C5.10684 7.84939 5.16203 7.71615 5.26026 7.61792C5.35849 7.51969 5.49173 7.4645 5.63065 7.4645C5.76957 7.4645 5.90281 7.51969 6.00104 7.61792C6.09927 7.71615 6.15446 7.84939 6.15446 7.98831ZM3.0116 6.41688C3.15053 6.41688 3.28376 6.36169 3.38199 6.26346C3.48022 6.16523 3.53541 6.032 3.53541 5.89307C3.53541 5.75415 3.48022 5.62092 3.38199 5.52268C3.28376 5.42445 3.15053 5.36926 3.0116 5.36926C2.87268 5.36926 2.73945 5.42445 2.64121 5.52268C2.54298 5.62092 2.48779 5.75415 2.48779 5.89307C2.48779 6.032 2.54298 6.16523 2.64121 6.26346C2.73945 6.36169 2.87268 6.41688 3.0116 6.41688ZM3.0116 8.51212C3.15053 8.51212 3.28376 8.45693 3.38199 8.3587C3.48022 8.26047 3.53541 8.12723 3.53541 7.98831C3.53541 7.84939 3.48022 7.71615 3.38199 7.61792C3.28376 7.51969 3.15053 7.4645 3.0116 7.4645C2.87268 7.4645 2.73945 7.51969 2.64121 7.61792C2.54298 7.71615 2.48779 7.84939 2.48779 7.98831C2.48779 8.12723 2.54298 8.26047 2.64121 8.3587C2.73945 8.45693 2.87268 8.51212 3.0116 8.51212Z" fill="black"/>
<path fill-rule="evenodd" clip-rule="evenodd" d="M3.01138 0C3.11557 0 3.2155 0.0413902 3.28917 0.115065C3.36285 0.18874 3.40424 0.288665 3.40424 0.392857V0.792524C3.751 0.785714 4.13286 0.785714 4.55295 0.785714H6.70738C7.128 0.785714 7.50986 0.785714 7.85662 0.792524V0.392857C7.85662 0.288665 7.89801 0.18874 7.97168 0.115065C8.04536 0.0413902 8.14528 0 8.24948 0C8.35367 0 8.45359 0.0413902 8.52727 0.115065C8.60094 0.18874 8.64233 0.288665 8.64233 0.392857V0.826048C8.77852 0.836524 8.90756 0.849794 9.02943 0.865857C9.64333 0.948619 10.1404 1.12252 10.5328 1.51433C10.9246 1.90667 11.0985 2.40376 11.1812 3.01767C11.2614 3.61481 11.2614 4.37695 11.2614 5.33971V6.446C11.2614 7.40876 11.2614 8.17143 11.1812 8.76805C11.0985 9.38195 10.9246 9.87905 10.5328 10.2714C10.1404 10.6632 9.64333 10.8371 9.02943 10.9199C8.43229 11 7.67014 11 6.70738 11H4.554C3.59124 11 2.82857 11 2.23195 10.9199C1.61805 10.8371 1.12095 10.6632 0.728619 10.2714C0.336809 9.87905 0.162905 9.38195 0.0801428 8.76805C0 8.17091 0 7.40876 0 6.446V5.33971C0 4.37695 0 3.61429 0.0801428 3.01767C0.162905 2.40376 0.336809 1.90667 0.728619 1.51433C1.12095 1.12252 1.61805 0.948619 2.23195 0.865857C2.35417 0.849794 2.48321 0.836524 2.61905 0.826048V0.392857C2.61905 0.288756 2.66037 0.18891 2.73393 0.11525C2.80749 0.0415903 2.90728 0.000138802 3.01138 0ZM2.33567 1.64476C1.80924 1.71548 1.50543 1.84852 1.28386 2.0701C1.06229 2.29167 0.929238 2.59548 0.858524 3.1219C0.846651 3.21095 0.836524 3.30506 0.828143 3.40424H10.4327C10.4243 3.30506 10.4142 3.21078 10.4023 3.12138C10.3316 2.59495 10.1986 2.29114 9.977 2.06957C9.75543 1.848 9.45162 1.71495 8.92467 1.64424C8.38671 1.57195 7.67695 1.5709 6.67805 1.5709H4.58281C3.5839 1.5709 2.87467 1.57248 2.33567 1.64476ZM0.78519 5.36905C0.78519 4.92171 0.78519 4.53252 0.792 4.19048H10.4689C10.4757 4.53252 10.4757 4.92171 10.4757 5.36905V6.41667C10.4757 7.41557 10.4746 8.12533 10.4023 8.66381C10.3316 9.19024 10.1986 9.49405 9.977 9.71562C9.75543 9.93719 9.45162 10.0702 8.92467 10.141C8.38671 10.2132 7.67695 10.2143 6.67805 10.2143H4.58281C3.5839 10.2143 2.87467 10.2132 2.33567 10.141C1.80924 10.0702 1.50543 9.93719 1.28386 9.71562C1.06229 9.49405 0.929238 9.19024 0.858524 8.66329C0.786238 8.12533 0.78519 7.41557 0.78519 6.41667V5.36905Z" fill="black"/>
</svg>
