<svg width="14" height="14" viewBox="0 0 14 14" fill="none" xmlns="http://www.w3.org/2000/svg">
<path d="M11.808 14C11.5787 14 11.3867 13.9227 11.232 13.768C11.0773 13.6133 11 13.4213 11 13.192V10C11 9.77134 11.0773 9.57967 11.232 9.425C11.3867 9.27034 11.5787 9.19267 11.808 9.192H13.192C13.4213 9.192 13.6133 9.26934 13.768 9.424C13.9227 9.57867 14 9.77067 14 10V13.192C14 13.4213 13.9227 13.6133 13.768 13.768C13.6133 13.9227 13.4213 14 13.192 14H11.808ZM6.308 14C6.07867 14 5.88667 13.9227 5.732 13.768C5.57733 13.6133 5.5 13.4213 5.5 13.192V0.808004C5.5 0.579338 5.57733 0.387338 5.732 0.232004C5.88667 0.0766708 6.07867 -0.000662393 6.308 4.27351e-06H7.692C7.92133 4.27351e-06 8.11333 0.0773375 8.268 0.232004C8.42267 0.386671 8.5 0.578671 8.5 0.808004V13.192C8.5 13.4213 8.42267 13.6133 8.268 13.768C8.11333 13.9227 7.92133 14 7.692 14H6.308ZM0.808 14C0.578667 14 0.386667 13.9227 0.232 13.768C0.0773332 13.6133 0 13.4213 0 13.192V5.625C0 5.38634 0.0773332 5.19067 0.232 5.038C0.386667 4.88534 0.578667 4.80867 0.808 4.808H2.192C2.42067 4.808 2.61267 4.88534 2.768 5.04C2.92333 5.19467 3.00067 5.38667 3 5.616V13.183C3 13.4217 2.92267 13.6173 2.768 13.77C2.61333 13.9227 2.42133 13.9993 2.192 14H0.808Z" fill="black"/>
</svg>
