<svg width="86" height="76" viewBox="0 0 86 76" fill="none" xmlns="http://www.w3.org/2000/svg">
<g filter="url(#filter0_d_98_3585)">
<path d="M28.1251 43.5057C28.6948 42.5615 32.5649 42.4459 33.7965 44.3077C34.11 43.7734 33.1377 42.36 32.3357 42.1881C32.5896 41.702 34.2548 42.1881 34.5699 42.675C34.7131 40.9851 30.6458 40.9278 29.9583 41.558C29.4714 39.7534 28.3256 37.863 28.3256 37.863L26.8648 38.2353C26.6357 38.3499 28.8412 41.071 28.8412 41.9303C28.5688 41.9107 27.6669 42.7323 27.6096 43.2479C27.6096 43.2479 27.9538 43.3232 28.1251 43.5057Z" fill="url(#paint0_linear_98_3585)"/>
<path d="M33.7666 33.1081C37.2333 28.8689 37.6128 25.2885 38.2121 23.0256C38.6369 21.4216 40.722 20.8486 40.8997 20.7342C40.6992 19.8462 40.4186 19.6173 40.4186 19.6173C40.4186 19.6173 34.1172 19.0442 32.2267 26.1765C32.2089 26.2437 32.1907 26.3105 32.172 26.3769C30.8507 29.6423 29.9628 33.6237 23.4332 37.4907C23.1607 37.4712 28.5831 38.178 33.7666 33.1081Z" fill="url(#paint1_linear_98_3585)"/>
<path d="M31.9467 26.463C30.7974 29.5278 26.8647 34.9987 21.1073 37.1756C22.5395 39.9254 22.9119 41.8158 23.9144 43.6204C27.7891 42.0546 28.7889 44.3096 29.0952 44.914C29.1215 44.9501 29.142 44.9869 29.1561 45.0239C29.1395 44.9995 29.1195 44.9619 29.0952 44.914C28.6947 44.3624 26.955 43.9315 26.1486 44.3078C27.3802 44.6229 28.8566 46.3008 28.3255 47.0003C23.451 42.3663 20.6072 47.2867 20.6072 47.2294C20.5772 47.176 20.553 47.1007 20.5345 47.0003C20.1908 45.1385 22.6751 44.0787 22.6751 44.0787C22.6751 42.4747 18.4149 37.4908 18.4149 37.4908C18.4149 37.4908 13.4869 35.9482 12.4251 31.1892C11.5539 27.2847 11.8158 22.7773 15.1782 18.9585C20.0387 13.4383 26.9221 13.7825 32.1351 15.1663C39.124 7.47256 44.2029 16.0084 43.5637 17.6696C42.1028 18.4717 42.9622 17.8128 40.413 19.56C34.0541 19.56 32.4242 25.1897 31.9467 26.463Z" fill="url(#paint2_linear_98_3585)"/>
<path d="M41.5013 19.5599C46.9435 20.9634 51.9847 24.1141 57.9998 26.7207C57.0546 24.8304 48.748 21.0493 45.1962 19.1875C44.641 18.8278 44.0505 18.3568 43.7641 17.9272C43.0194 17.948 41.1002 19.9036 41.5013 19.5599Z" fill="url(#paint3_linear_98_3585)"/>
<path d="M40.4414 19.5884C40.4414 19.5884 40.6992 19.8748 40.9283 20.7341C42.3319 20.0467 55.3073 26.7492 57.9711 26.7492C51.2686 23.4839 44.652 20.2758 41.5012 19.5311C42.6469 18.3854 43.3057 17.9844 43.7627 17.8984C43.7627 17.8984 43.7341 17.8125 43.5909 17.6979C42.6469 18.0703 41.0143 18.9869 40.4414 19.5884Z" fill="black"/>
<circle cx="39.1813" cy="17.0393" r="0.744727" fill="black"/>
</g>
<defs>
<filter id="filter0_d_98_3585" x="0" y="0" width="86" height="75.2299" filterUnits="userSpaceOnUse" color-interpolation-filters="sRGB">
<feFlood flood-opacity="0" result="BackgroundImageFix"/>
<feColorMatrix in="SourceAlpha" type="matrix" values="0 0 0 0 0 0 0 0 0 0 0 0 0 0 0 0 0 0 127 0" result="hardAlpha"/>
<feOffset dx="8" dy="8"/>
<feGaussianBlur stdDeviation="10"/>
<feComposite in2="hardAlpha" operator="out"/>
<feColorMatrix type="matrix" values="0 0 0 0 0 0 0 0 0 0 0 0 0 0 0 0 0 0 0.25 0"/>
<feBlend mode="normal" in2="BackgroundImageFix" result="effect1_dropShadow_98_3585"/>
<feBlend mode="normal" in="SourceGraphic" in2="effect1_dropShadow_98_3585" result="shape"/>
</filter>
<linearGradient id="paint0_linear_98_3585" x1="42.0744" y1="27.2363" x2="25.9769" y2="50.0077" gradientUnits="userSpaceOnUse">
<stop stop-color="#C69149"/>
<stop offset="1" stop-color="#604623"/>
</linearGradient>
<linearGradient id="paint1_linear_98_3585" x1="39.668" y1="18.2422" x2="15.092" y2="55.3067" gradientUnits="userSpaceOnUse">
<stop stop-color="#608249"/>
<stop offset="1" stop-color="#151C10"/>
</linearGradient>
<linearGradient id="paint2_linear_98_3585" x1="52.5004" y1="8.07407" x2="18.8159" y2="36.431" gradientUnits="userSpaceOnUse">
<stop stop-color="#E3A754"/>
<stop offset="1" stop-color="#7D5C2E"/>
</linearGradient>
<linearGradient id="paint3_linear_98_3585" x1="47.2586" y1="15.6644" x2="30.4163" y2="31.9911" gradientUnits="userSpaceOnUse">
<stop stop-color="#C79249"/>
<stop offset="1" stop-color="#614724"/>
</linearGradient>
</defs>
</svg>
