<svg width="8" height="8" viewBox="0 0 8 8" fill="none" xmlns="http://www.w3.org/2000/svg">
<path d="M7.90993 7.47501L5.98624 5.55171C6.5438 4.88233 6.82183 4.02375 6.76249 3.15459C6.70315 2.28544 6.31101 1.47262 5.66764 0.885223C5.02428 0.297827 4.17922 -0.0189191 3.30826 0.000874827C2.43731 0.0206687 1.60751 0.375479 0.991496 0.991496C0.375479 1.60751 0.0206687 2.43731 0.000874827 3.30826C-0.0189191 4.17922 0.297827 5.02428 0.885223 5.66764C1.47262 6.31101 2.28544 6.70315 3.15459 6.76249C4.02375 6.82183 4.88233 6.5438 5.55171 5.98624L7.47501 7.90993C7.50357 7.93848 7.53747 7.96114 7.57478 7.97659C7.61209 7.99204 7.65208 8 7.69247 8C7.73286 8 7.77285 7.99204 7.81016 7.97659C7.84747 7.96114 7.88137 7.93848 7.90993 7.90993C7.93848 7.88137 7.96114 7.84747 7.97659 7.81016C7.99204 7.77285 8 7.73286 8 7.69247C8 7.65208 7.99204 7.61209 7.97659 7.57478C7.96114 7.53747 7.93848 7.50357 7.90993 7.47501ZM0.62321 3.38944C0.62321 2.84233 0.785447 2.30751 1.0894 1.85261C1.39336 1.3977 1.82539 1.04315 2.33085 0.833777C2.83631 0.624408 3.39251 0.569627 3.92911 0.676363C4.4657 0.783098 4.9586 1.04656 5.34546 1.43342C5.73233 1.82029 5.99579 2.31318 6.10252 2.84978C6.20926 3.38637 6.15448 3.94257 5.94511 4.44803C5.73574 4.9535 5.38118 5.38552 4.92628 5.68948C4.47137 5.99344 3.93655 6.15567 3.38944 6.15567C2.65604 6.15486 1.95291 5.86316 1.43432 5.34457C0.915726 4.82597 0.624024 4.12284 0.62321 3.38944Z" fill="black" fill-opacity="0.4"/>
</svg>
