<svg width="11" height="11" viewBox="0 0 11 11" fill="none" xmlns="http://www.w3.org/2000/svg">
<path fill-rule="evenodd" clip-rule="evenodd" d="M0 5.5C0 2.46235 2.46235 0 5.5 0C8.53765 0 11 2.46235 11 5.5C11 8.53765 8.53765 11 5.5 11C2.46235 11 0 8.53765 0 5.5ZM5.5 1.1C4.33305 1.1 3.21389 1.56357 2.38873 2.38873C1.56357 3.21389 1.1 4.33305 1.1 5.5C1.1 6.66695 1.56357 7.78611 2.38873 8.61127C3.21389 9.43643 4.33305 9.9 5.5 9.9C6.66695 9.9 7.78611 9.43643 8.61127 8.61127C9.43643 7.78611 9.9 6.66695 9.9 5.5C9.9 4.33305 9.43643 3.21389 8.61127 2.38873C7.78611 1.56357 6.66695 1.1 5.5 1.1Z" fill="white"/>
<path fill-rule="evenodd" clip-rule="evenodd" d="M6.0502 2.74995C6.0502 2.60408 5.99225 2.46419 5.8891 2.36104C5.78596 2.2579 5.64606 2.19995 5.5002 2.19995C5.35433 2.19995 5.21443 2.2579 5.11129 2.36104C5.00814 2.46419 4.9502 2.60408 4.9502 2.74995V4.94995H2.7502C2.60433 4.94995 2.46443 5.0079 2.36129 5.11104C2.25814 5.21419 2.2002 5.35408 2.2002 5.49995C2.2002 5.64582 2.25814 5.78571 2.36129 5.88886C2.46443 5.992 2.60433 6.04995 2.7502 6.04995H4.9502V8.24995C4.9502 8.39582 5.00814 8.53572 5.11129 8.63886C5.21443 8.74201 5.35433 8.79995 5.5002 8.79995C5.64606 8.79995 5.78596 8.74201 5.8891 8.63886C5.99225 8.53572 6.0502 8.39582 6.0502 8.24995V6.04995H8.2502C8.39606 6.04995 8.53596 5.992 8.6391 5.88886C8.74225 5.78571 8.8002 5.64582 8.8002 5.49995C8.8002 5.35408 8.74225 5.21419 8.6391 5.11104C8.53596 5.0079 8.39606 4.94995 8.2502 4.94995H6.0502V2.74995Z" fill="white"/>
</svg>
