<svg width="14" height="14" viewBox="0 0 14 14" fill="none" xmlns="http://www.w3.org/2000/svg">
<path d="M7.5752 12.7756C7.55091 12.8948 7.49256 13.0057 7.40527 13.093C7.28806 13.2102 7.12865 13.2756 6.96289 13.2756C6.79713 13.2756 6.63772 13.2102 6.52051 13.093C6.43322 13.0057 6.37487 12.8948 6.35059 12.7756H7.5752ZM7.58789 12.5256H6.33789V7.83716C6.33998 7.83929 6.34163 7.84188 6.34375 7.84399C6.50784 8.00809 6.73083 8.09985 6.96289 8.09985C7.19496 8.09985 7.41794 8.00809 7.58203 7.84399C7.58415 7.84188 7.5858 7.83929 7.58789 7.83716V12.5256ZM7.57227 7.35962C7.54676 7.475 7.49013 7.58237 7.40527 7.66724C7.28806 7.78445 7.12865 7.84985 6.96289 7.84985C6.79713 7.84985 6.63772 7.78445 6.52051 7.66724C6.43565 7.58237 6.37902 7.475 6.35352 7.35962H7.57227ZM6.96289 6.60962C7.12865 6.60962 7.28806 6.67503 7.40527 6.79224C7.49012 6.87717 7.54682 6.98442 7.57227 7.09985H6.35352C6.37896 6.98442 6.43566 6.87717 6.52051 6.79224C6.63772 6.67503 6.79713 6.60962 6.96289 6.60962ZM7.58789 2.3313V6.62134C7.58596 6.61937 7.58398 6.61743 7.58203 6.61548C7.41794 6.45138 7.19496 6.35962 6.96289 6.35962C6.73083 6.35962 6.50784 6.45138 6.34375 6.61548C6.3418 6.61743 6.33982 6.61937 6.33789 6.62134V2.3313H7.58789ZM6.96387 0.451416C7.04592 0.451479 7.12734 0.467816 7.20312 0.499268C7.27883 0.530715 7.34734 0.577009 7.40527 0.63501C7.46317 0.692987 7.50966 0.76146 7.54102 0.837158C7.55623 0.87395 7.56726 0.912597 7.5752 0.951416L6.35156 0.950439C6.35952 0.91181 6.37058 0.87377 6.38574 0.837158C6.41719 0.761375 6.46344 0.692019 6.52148 0.634033C6.57952 0.576072 6.64882 0.530625 6.72461 0.499268C6.80046 0.467909 6.88179 0.451361 6.96387 0.451416Z" fill="#9D0000" stroke="#9D0000" stroke-width="0.25"/>
<path d="M0.75 6.42847L6.04425 1.13447C6.16613 1.01258 6.31082 0.915888 6.47007 0.849921C6.62932 0.783953 6.8 0.75 6.97237 0.75C7.14475 0.75 7.31543 0.783953 7.47468 0.849921C7.63393 0.915888 7.77862 1.01258 7.9005 1.13447L13.1945 6.42872" stroke="#9D0000" stroke-width="1.5" stroke-linecap="round" stroke-linejoin="round"/>
</svg>
