<svg width="21" height="22" viewBox="0 0 21 22" fill="none" xmlns="http://www.w3.org/2000/svg">
<path d="M19.5 10.8405V19.8405H1.5V10.8405H19.5Z" stroke="#A4A44B"/>
<path d="M10.5 13.3408C11.0303 13.3408 11.539 13.5509 11.9141 13.9258C12.2891 14.3009 12.5 14.8104 12.5 15.3408C12.4999 15.8711 12.289 16.3799 11.9141 16.7549C11.539 17.1298 11.0303 17.3408 10.5 17.3408C9.96966 17.3408 9.46099 17.1298 9.08594 16.7549C8.71096 16.3799 8.5001 15.8711 8.5 15.3408C8.5 14.8104 8.71086 14.3009 9.08594 13.9258C9.46098 13.5509 9.96971 13.3408 10.5 13.3408ZM15.2285 5.92188L15.4434 6.22266L15.7939 6.10547L17.1875 5.64062L18.625 9.84375H2.92871L12.5449 2.16016L15.2285 5.92188Z" stroke="#A4A44B"/>
<path d="M19.5 10.3434H19.324L17.501 5.01043L1.854 10.3434L1.5 10.3404M1 10.3444H1.5L12.646 1.44043L15.463 5.39043" stroke="#A4A44B" stroke-width="2" stroke-linecap="square"/>
<path d="M13 15.3405C13 16.0035 12.7366 16.6394 12.2678 17.1082C11.7989 17.5771 11.163 17.8405 10.5 17.8405C9.83696 17.8405 9.20107 17.5771 8.73223 17.1082C8.26339 16.6394 8 16.0035 8 15.3405C8 14.6774 8.26339 14.0415 8.73223 13.5727C9.20107 13.1038 9.83696 12.8405 10.5 12.8405C11.163 12.8405 11.7989 13.1038 12.2678 13.5727C12.7366 14.0415 13 14.6774 13 15.3405Z" stroke="#A4A44B" stroke-width="2" stroke-linecap="square"/>
<path d="M20 10.3405V20.3405H1V10.3405H20Z" stroke="#A4A44B" stroke-width="2" stroke-linecap="square"/>
<path d="M1 10.3405H3C3 10.8709 2.78929 11.3796 2.41421 11.7547C2.03914 12.1297 1.53043 12.3405 1 12.3405V10.3405ZM20 10.3405H18C18 10.8709 18.2107 11.3796 18.5858 11.7547C18.9609 12.1297 19.4696 12.3405 20 12.3405V10.3405ZM1 20.3405H3.002C3.00226 20.0775 2.95066 19.817 2.85014 19.574C2.74963 19.331 2.60217 19.1102 2.41621 18.9242C2.23026 18.7383 2.00946 18.5908 1.76644 18.4903C1.52343 18.3898 1.26298 18.3382 1 18.3385V20.3405ZM20 20.3405H18C18 19.81 18.2107 19.3013 18.5858 18.9262C18.9609 18.5512 19.4696 18.3405 20 18.3405V20.3405Z" stroke="#A4A44B" stroke-width="2" stroke-linecap="square"/>
</svg>
